<svg width="65" height="43" viewBox="0 0 65 43" fill="none" xmlns="http://www.w3.org/2000/svg">
<g clip-path="url(#clip0)">
<path d="M5.25 26.1388L18 33.5L5.25 40.8612L5.25 26.1388Z" stroke="#DFE595"/>
<path d="M5.25 10.1388L18 17.5L5.25 24.8612L5.25 10.1388Z" stroke="#DFE595"/>
<path d="M33 10.163L45.0392 17.5L33 24.837V10.163Z" stroke="#DFE595"/>
<path d="M47 2.163L59.0392 9.5L47 16.837V2.163Z" stroke="#DFE595"/>
<path d="M47 18.163L59.0392 25.5L47 32.837V18.163Z" stroke="#DFE595"/>
<path d="M19.25 2.13878L32 9.5L19.25 16.8612L19.25 2.13878Z" stroke="#DFE695"/>
<path d="M18 18.163L5.9608 25.5L18 32.837L18 18.163Z" stroke="#DFE595"/>
<path d="M32 10.163L19.9608 17.5L32 24.837V10.163Z" stroke="#DFE595"/>
<path d="M18 2.163L5.9608 9.5L18 16.837L18 2.163Z" stroke="#DFE595"/>
<path d="M46 2.163L33.9608 9.5L46 16.837V2.163Z" stroke="#DFE595"/>
<path d="M59.75 10.1388L47 17.5L59.75 24.8612V10.1388Z" stroke="#DFE695"/>
<path d="M59.75 26.1388L47 33.5L59.75 40.8612V26.1388Z" stroke="#DFE595"/>
</g>
<defs>
<clipPath id="clip0">
<rect width="65" height="43" fill="white"/>
</clipPath>
</defs>
</svg>
